<svg width="40" height="35" viewBox="0 0 40 35" fill="none" xmlns="http://www.w3.org/2000/svg">
<path d="M37.7112 3.39347C35.6616 1.49199 28.4338 0 20 0C11.5662 0 4.33836 1.49199 2.28883 3.39347C0.405313 5.13782 0 13.024 0 17.5C0 21.976 0.405313 29.8622 2.28883 31.6066C4.33836 33.508 11.5662 35 20 35C28.4338 35 35.6616 33.508 37.7112 31.6065C39.5948 29.8622 40 21.976 40 17.5C40 13.024 39.5948 5.13782 37.7112 3.39347ZM26.001 17.7159L16.7163 24.0822C16.648 24.127 16.5649 24.1298 16.4966 24.0849C16.4282 24.0401 16.3855 23.9559 16.3855 23.8661V17.5V11.1338C16.3855 11.0426 16.4282 10.9598 16.4966 10.915C16.5649 10.8701 16.648 10.8729 16.7163 10.9178L26.001 17.284C26.067 17.3289 26.1072 17.4102 26.1072 17.4999C26.1072 17.587 26.0669 17.6711 26.001 17.7159Z" fill="#EB7D47"/>
</svg>
